HIERARCHY
ROOT Hips
{
    OFFSET   0.000000   0.000000   0.000000
    CHANNELS 6 Xposition Yposition Zposition Zrotation Xrotation Yrotation
    JOINT Chest
    {
        OFFSET   0.000000   8.007240   0.000000
        CHANNELS 3 Zrotation Xrotation Yrotation
        JOINT Chest2
        {
            OFFSET   0.000000  22.077100   0.000000
            CHANNELS 3 Zrotation Xrotation Yrotation
            JOINT Neck
            {
                OFFSET   0.000000  23.254800   0.000000
                CHANNELS 3 Zrotation Xrotation Yrotation
                JOINT Head
                {
                    OFFSET   0.000000  14.370000   1.956600
                    CHANNELS 3 Zrotation Xrotation Yrotation
                    End Site
                    {
                        OFFSET   0.000000  19.566000   0.000000
                    }
                }
            }
            JOINT LeftCollar
            {
                OFFSET   3.911900  19.017000  -0.467064
                CHANNELS 3 Zrotation Xrotation Yrotation
                JOINT LeftShoulder
                {
                    OFFSET  10.383700   0.000000   0.000000
                    CHANNELS 3 Zrotation Xrotation Yrotation
                    JOINT LeftElbow
                    {
                        OFFSET  26.662100   0.001476   0.000517
                        CHANNELS 3 Zrotation Xrotation Yrotation
                        JOINT LeftWrist
                        {
                            OFFSET  28.869000  -0.000025  -0.000106
                            CHANNELS 3 Zrotation Xrotation Yrotation
                            JOINT LeftFinger0
                            {
                                OFFSET   2.044660  -2.323460   3.252850
                                CHANNELS 3 Zrotation Xrotation Yrotation
                                JOINT LeftFinger01
                                {
                                    OFFSET   3.088130   0.000000   0.000000
                                    CHANNELS 3 Zrotation Xrotation Yrotation
                                    JOINT LeftFinger02
                                    {
                                        OFFSET   2.639460   0.000000   0.000000
                                        CHANNELS 3 Zrotation Xrotation Yrotation
                                        End Site
                                        {
                                            OFFSET   2.582190   0.000000   0.000000
                                        }
                                    }
                                }
                            }
                            JOINT LeftFinger1
                            {
                                OFFSET   8.364480   0.000000   3.252850
                                CHANNELS 3 Zrotation Xrotation Yrotation
                                JOINT LeftFinger11
                                {
                                    OFFSET   4.646930   0.000000   0.000000
                                    CHANNELS 3 Zrotation Xrotation Yrotation
                                    JOINT LeftFinger12
                                    {
                                        OFFSET   2.323460   0.000000   0.000000
                                        CHANNELS 3 Zrotation Xrotation Yrotation
                                        End Site
                                        {
                                            OFFSET   2.273050   0.000000   0.000000
                                        }
                                    }
                                }
                            }
                            JOINT LeftFinger2
                            {
                                OFFSET   8.364490   0.000015   1.078090
                                CHANNELS 3 Zrotation Xrotation Yrotation
                                JOINT LeftFinger21
                                {
                                    OFFSET   5.111620   0.000000   0.000000
                                    CHANNELS 3 Zrotation Xrotation Yrotation
                                    JOINT LeftFinger22
                                    {
                                        OFFSET   2.788160   0.000016   0.000000
                                        CHANNELS 3 Zrotation Xrotation Yrotation
                                        End Site
                                        {
                                            OFFSET   2.727660   0.000000   0.000000
                                        }
                                    }
                                }
                            }
                            JOINT LeftFinger3
                            {
                                OFFSET   7.899780   0.000017  -1.078090
                                CHANNELS 3 Zrotation Xrotation Yrotation
                                JOINT LeftFinger31
                                {
                                    OFFSET   4.646930   0.000000   0.000000
                                    CHANNELS 3 Zrotation Xrotation Yrotation
                                    JOINT LeftFinger32
                                    {
                                        OFFSET   2.323470   0.000000   0.000000
                                        CHANNELS 3 Zrotation Xrotation Yrotation
                                        End Site
                                        {
                                            OFFSET   2.273050   0.000000   0.000000
                                        }
                                    }
                                }
                            }
                            JOINT LeftFinger4
                            {
                                OFFSET   7.435090   0.000000  -3.252850
                                CHANNELS 3 Zrotation Xrotation Yrotation
                                JOINT LeftFinger41
                                {
                                    OFFSET   3.717550   0.000000   0.000000
                                    CHANNELS 3 Zrotation Xrotation Yrotation
                                    JOINT LeftFinger42
                                    {
                                        OFFSET   1.858770   0.000000   0.000000
                                        CHANNELS 3 Zrotation Xrotation Yrotation
                                        End Site
                                        {
                                            OFFSET   1.818440   0.000000   0.000000
                                        }
                                    }
                                }
                            }
                        }
                    }
                }
            }
            JOINT RightCollar
            {
                OFFSET  -3.911900  19.017000  -0.467063
                CHANNELS 3 Zrotation Xrotation Yrotation
                JOINT RightShoulder
                {
                    OFFSET -10.383700   0.000019   0.000000
                    CHANNELS 3 Zrotation Xrotation Yrotation
                    JOINT RightElbow
                    {
                        OFFSET -26.662100   0.001175   0.000102
                        CHANNELS 3 Zrotation Xrotation Yrotation
                        JOINT RightWrist
                        {
                            OFFSET -28.869000   0.000016  -0.000079
                            CHANNELS 3 Zrotation Xrotation Yrotation
                            JOINT RightFinger0
                            {
                                OFFSET  -2.044660  -2.323490   3.252850
                                CHANNELS 3 Zrotation Xrotation Yrotation
                                JOINT RightFinger01
                                {
                                    OFFSET  -3.088140   0.000000   0.000000
                                    CHANNELS 3 Zrotation Xrotation Yrotation
                                    JOINT RightFinger02
                                    {
                                        OFFSET  -2.639460   0.000000   0.000000
                                        CHANNELS 3 Zrotation Xrotation Yrotation
                                        End Site
                                        {
                                            OFFSET  -2.582190   0.000000   0.000000
                                        }
                                    }
                                }
                            }
                            JOINT RightFinger1
                            {
                                OFFSET  -8.364480   0.000000   3.252850
                                CHANNELS 3 Zrotation Xrotation Yrotation
                                JOINT RightFinger11
                                {
                                    OFFSET  -4.646930   0.000000   0.000000
                                    CHANNELS 3 Zrotation Xrotation Yrotation
                                    JOINT RightFinger12
                                    {
                                        OFFSET  -2.323470   0.000000   0.000000
                                        CHANNELS 3 Zrotation Xrotation Yrotation
                                        End Site
                                        {
                                            OFFSET  -2.273050   0.000000   0.000000
                                        }
                                    }
                                }
                            }
                            JOINT RightFinger2
                            {
                                OFFSET  -8.364480   0.000000   1.078090
                                CHANNELS 3 Zrotation Xrotation Yrotation
                                JOINT RightFinger21
                                {
                                    OFFSET  -5.111620   0.000000   0.000000
                                    CHANNELS 3 Zrotation Xrotation Yrotation
                                    JOINT RightFinger22
                                    {
                                        OFFSET  -2.788160   0.000000   0.000000
                                        CHANNELS 3 Zrotation Xrotation Yrotation
                                        End Site
                                        {
                                            OFFSET  -2.727660   0.000000   0.000000
                                        }
                                    }
                                }
                            }
                            JOINT RightFinger3
                            {
                                OFFSET  -7.899780   0.000000  -1.078090
                                CHANNELS 3 Zrotation Xrotation Yrotation
                                JOINT RightFinger31
                                {
                                    OFFSET  -4.646930   0.000000   0.000000
                                    CHANNELS 3 Zrotation Xrotation Yrotation
                                    JOINT RightFinger32
                                    {
                                        OFFSET  -2.323470   0.000000   0.000000
                                        CHANNELS 3 Zrotation Xrotation Yrotation
                                        End Site
                                        {
                                            OFFSET  -2.273050   0.000000   0.000000
                                        }
                                    }
                                }
                            }
                            JOINT RightFinger4
                            {
                                OFFSET  -7.435090   0.000000  -3.252850
                                CHANNELS 3 Zrotation Xrotation Yrotation
                                JOINT RightFinger41
                                {
                                    OFFSET  -3.717550   0.000000   0.000000
                                    CHANNELS 3 Zrotation Xrotation Yrotation
                                    JOINT RightFinger42
                                    {
                                        OFFSET  -1.858770   0.000000   0.000000
                                        CHANNELS 3 Zrotation Xrotation Yrotation
                                        End Site
                                        {
                                            OFFSET  -1.818440   0.000000   0.000000
                                        }
                                    }
                                }
                            }
                        }
                    }
                }
            }
        }
    }
    JOINT LeftHip
    {
        OFFSET   9.783040   0.000000   0.000000
        CHANNELS 3 Zrotation Xrotation Yrotation
        JOINT LeftKnee
        {
            OFFSET   0.000032 -41.789100  -0.002222
            CHANNELS 3 Zrotation Xrotation Yrotation
            JOINT LeftAnkle
            {
                OFFSET   0.000087 -41.133200  -0.000135
                CHANNELS 3 Zrotation Xrotation Yrotation
                JOINT LeftToe
                {
                    OFFSET   0.000000  -6.358960  14.674500
                    CHANNELS 3 Zrotation Xrotation Yrotation
                    End Site
                    {
                        OFFSET   0.000000   0.000000   3.913200
                    }
                }
            }
        }
    }
    JOINT RightHip
    {
        OFFSET  -9.783040   0.000000   0.000000
        CHANNELS 3 Zrotation Xrotation Yrotation
        JOINT RightKnee
        {
            OFFSET   0.000047 -41.789100  -0.000896
            CHANNELS 3 Zrotation Xrotation Yrotation
            JOINT RightAnkle
            {
                OFFSET  -0.000117 -41.133300  -0.000248
                CHANNELS 3 Zrotation Xrotation Yrotation
                JOINT RightToe
                {
                    OFFSET   0.000000  -6.358970  14.674500
                    CHANNELS 3 Zrotation Xrotation Yrotation
                    End Site
                    {
                        OFFSET   0.000000   0.000000   3.913200
                    }
                }
            }
        }
    }
}
MOTION
Frames: 5
Frame Time:   0.016667
 -1.256620  89.507400   0.631290  -3.794930  -9.105730  -0.846338   1.305170   6.867950   0.148217   2.620120  13.737500   0.139053   3.013050  -0.736976   0.038765   4.952330  -1.481920   9.939980  -9.656150  -1.588370  -2.367320 -67.890600  21.725500 -11.392400  -1.884320 -10.625000  -9.414220   3.574760  -4.319260   4.993270  41.001800  25.288000 -62.931600 -17.432500   0.002885   0.004290  -3.716220  -0.004662   0.000034 -29.036300   5.079290  -9.053200 -24.086800   0.001290   0.001470 -16.860700   0.000680   0.000535 -27.639900   1.404920  -2.679110 -30.081200   0.001456   0.006144 -20.034100  -0.004201   0.003711 -27.291100  -2.202900   4.260570 -28.601100  -0.000733  -0.000685 -19.048300  -0.000838   0.005084 -26.929200  -3.306340   6.477350 -40.674400  -0.000849   0.000952 -27.089200   0.000517   0.000741   2.018290  -6.706970  14.666300  19.159700   3.948390  76.916400 -20.038400  -1.101290  32.356900  11.359600 -12.976300 -17.278600 -54.729000  34.169500  62.042300  -9.382700  -0.008384  -0.001335  -9.691330  -0.008695  -0.000296  19.015900   3.083990   8.869140  15.757700   0.002654  -0.004750  11.030400  -0.004307  -0.004716  17.201300   0.497472   1.595020  17.211800  -0.000120  -0.011723  11.463100  -0.001590  -0.005026  19.004600  -4.100680 -11.737800  19.424100  -0.005329  -0.007876  12.936400  -0.002218  -0.003025  28.651200 -11.918000 -20.686400  46.252600  -0.003992  -0.008318  30.804200  -0.005025  -0.003975   3.892340  13.179900   5.497610   0.654158   0.230290   8.784330  -1.410720  -3.744520   0.709549  -0.000000   0.000000  -0.000000   2.608850   6.696760  -4.633290   1.197770   5.316870  -5.580020  -3.206920  -1.908630  -0.286134  -0.000000   0.000000   0.000000
 -1.241530  89.507400   0.647233  -3.798430  -9.073770  -0.922123   1.309040   6.816320   0.071458   2.637810  13.632500  -0.015411   2.961980  -0.688240   0.035605   4.868050  -1.384300  10.071700  -9.610400  -1.469490  -2.319310 -67.985700  21.618000 -11.286400  -1.897440 -10.639000  -9.409760   3.566400  -4.228960   4.990570  41.041500  25.418800 -63.052300 -17.437300   0.003077   0.004378  -3.718650  -0.004669   0.000084 -29.035400   5.080260  -9.050160 -24.086000   0.001302   0.001457 -16.860200   0.000709   0.000536 -27.634000   1.407160  -2.683270 -30.052500   0.001523   0.006143 -20.014900  -0.004198   0.003712 -27.285600  -2.194040   4.244690 -28.572100  -0.000701  -0.000757 -19.029000  -0.000811   0.005086 -26.883600  -3.288600   6.455780 -40.603800  -0.000819   0.000860 -27.042100   0.000537   0.000692   2.056700  -6.669980  14.526700  20.167500   4.267090  76.111600 -20.046500  -2.069700  32.370100  10.433300 -14.003300 -17.358400 -55.131500  34.410700  62.181200  -9.736410  -0.004263  -0.000647  -9.868190  -0.007518  -0.000316  19.386700   3.066530   8.637690  16.050600   0.002624  -0.004451  11.235400  -0.004304  -0.004460  17.595500   0.451109   1.411410  17.599700  -0.000158  -0.006326  11.721400  -0.001546  -0.004817  19.444200  -4.170650 -11.644900  19.868300  -0.004506  -0.007584  13.232300  -0.002146  -0.002596  28.808100 -11.997700 -20.709800  46.512600  -0.002122  -0.008129  30.977400  -0.004230  -0.003943   3.876170  13.156000   5.497390   0.642223   0.253632   8.818050  -1.402860  -3.766850   0.753468   0.000000   0.000000   0.000000   2.589080   6.670300  -4.605020   1.193240   5.321790  -5.552280  -3.191470  -1.916600  -0.262825   0.000000   0.000000  -0.000000
 -1.225740  89.507500   0.660661  -3.798990  -9.036750  -0.997445   1.313320   6.767170  -0.001609   2.655380  13.532500  -0.162441   2.914890  -0.640157   0.032511   4.790350  -1.288060  10.167300  -9.572870  -1.363830  -2.292850 -68.073300  21.499200 -11.189700  -1.911970 -10.616400  -9.390550   3.551420  -4.009650   4.987960  41.009100  25.426400 -63.078300 -17.463000   0.003272   0.004457  -3.731520  -0.004667   0.000111 -29.058600   5.082080  -9.044380 -24.105000   0.001316   0.001444 -16.873500   0.000738   0.000535 -27.633500   1.406820  -2.683590 -30.068800   0.001593   0.006143 -20.025800  -0.004199   0.003713 -27.286800  -2.189760   4.236230 -28.579400  -0.000669  -0.000822 -19.033800  -0.000783   0.005083 -26.871200  -3.282190   6.446870 -40.584500  -0.000787   0.000768 -27.029200   0.000555   0.000642   2.104950  -6.657370  14.380700  21.290300   4.631260  75.223900 -20.094400  -2.844270  32.462100   9.482970 -14.957200 -17.233000 -55.287900  34.571700  62.495400  -9.918260  -0.010218  -0.001580  -9.959120  -0.006329  -0.000328  19.678300   3.072070   8.525750  16.289200   0.002596  -0.004441  11.402400  -0.004306  -0.004452  17.910500   0.439057   1.358870  17.920400  -0.000203  -0.005541  11.935000  -0.001488  -0.004626  19.846900  -4.233590 -11.561300  20.274800  -0.004071  -0.007157  13.503000  -0.002072  -0.002319  29.019900 -12.103900 -20.729300  46.878100  -0.001292  -0.007980  31.220900  -0.003849  -0.003904   3.854880  13.141500   5.497060   0.632100   0.246556   8.853500  -1.392710  -3.774630   0.795811  -0.000000   0.000000  -0.000000   2.561950   6.640070  -4.596700   1.192360   5.326220  -5.508080  -3.179750  -1.924840  -0.235673   0.000000   0.000000  -0.000000
 -1.210910  89.507600   0.673646  -3.800270  -8.998650  -1.077750   1.318600   6.720890  -0.072204   2.673710  13.438300  -0.304562   2.866880  -0.596569   0.029889   4.711210  -1.200840  10.240500  -9.548260  -1.269430  -2.283620 -68.144700  21.382000 -11.093700  -1.930870 -10.575900  -9.365880   3.534410  -3.768640   4.982870  41.009200  25.419000 -63.093100 -17.484600   0.003467   0.004537  -3.742320  -0.004666   0.000133 -29.089000   5.083620  -9.040360 -24.129500   0.001330   0.001431 -16.890600   0.000768   0.000535 -27.633300   1.406130  -2.683910 -30.085200   0.001663   0.006142 -20.036700  -0.004201   0.003713 -27.287700  -2.186780   4.230020 -28.586600  -0.000636  -0.000885 -19.038700  -0.000755   0.005081 -26.866000  -3.278460   6.440900 -40.575900  -0.000756   0.000676 -27.023500   0.000572   0.000591   2.147290  -6.642390  14.234300  22.545800   5.035510  74.273500 -20.148800  -3.623720  32.623700   8.619820 -15.712000 -16.901200 -55.422500  34.720200  62.798100 -10.136800  -0.016173  -0.002747 -10.068400  -0.005136  -0.000334  19.920700   3.077580   8.416260  16.489200   0.002566  -0.004440  11.542400  -0.004308  -0.004450  18.160500   0.425129   1.281550  18.177100  -0.000252  -0.005298  12.106000  -0.001431  -0.004443  20.171900  -4.283990 -11.494700  20.602700  -0.003703  -0.006704  13.721400  -0.002000  -0.002119  29.154300 -12.208400 -20.758500  47.101900  -0.000920  -0.007825  31.369900  -0.003638  -0.003863   3.832970  13.135200   5.496850   0.621927   0.230246   8.892410  -1.382230  -3.778260   0.840867  -0.000000   0.000000   0.000000   2.534500   6.609980  -4.592050   1.190830   5.328950  -5.458810  -3.168860  -1.933060  -0.205001   0.000000   0.000000   0.000000
 -1.198090  89.509900   0.687091  -3.805370  -8.963510  -1.166810   1.325790   6.679730  -0.139032   2.695370  13.354400  -0.439382   2.815280  -0.562948   0.028275   4.626270  -1.133550  10.289500  -9.539980  -1.188340  -2.301190 -68.184200  21.279700 -10.996900  -1.958520 -10.532300  -9.337650   3.497460  -3.580670   4.970740  40.984600  25.371700 -63.052100 -17.484200   0.003662   0.004632  -3.742120  -0.004671   0.000160 -29.097200   5.084470  -9.044340 -24.136000   0.001345   0.001420 -16.895000   0.000795   0.000536 -27.632900   1.405320  -2.687790 -30.078400   0.001733   0.006142 -20.032200  -0.004201   0.003713 -27.287200  -2.182310   4.221670 -28.579100  -0.000604  -0.000949 -19.033800  -0.000727   0.005082 -26.850400  -3.270890   6.430470 -40.551500  -0.000726   0.000583 -27.007300   0.000588   0.000542   2.166900  -6.617550  14.086600  24.014400   5.459940  73.259200 -20.175200  -4.590020  32.778300   8.012710 -16.070000 -16.458900 -55.744500  34.883300  62.879400 -10.657300  -0.016127  -0.003019 -10.328700  -0.003878  -0.000324  20.140000   3.026540   8.162210  16.660600   0.002531  -0.004444  11.662400  -0.004308  -0.004446  18.326300   0.319411   0.934522  18.340700  -0.000304  -0.004870  12.214900  -0.001387  -0.004261  20.330800  -4.309110 -11.463800  20.762800  -0.003288  -0.006275  13.828000  -0.001934  -0.001911  29.089400 -12.329200 -20.966900  47.066300  -0.000622  -0.007651  31.346200  -0.003380  -0.003824   3.814200  13.140000   5.493520   0.612524   0.200338   8.935650  -1.371400  -3.781250   0.892482   0.000000   0.000000  -0.000000   2.513090   6.584120  -4.578430   1.186020   5.329080  -5.411920  -3.157220  -1.940800  -0.173020  -0.000000   0.000000   0.000000
